#!OML:ASF X:\für Bonn\!DataBase\2005_08_12_Daniel\c3d\Daniel.ASF
:FULLY-SPECIFIED
:DEGREES
299
root 18.2204 2.17254 0.427182 -1713.47 258.946 148.849
lowerback 39.1057 -2.72269 -0.0312054
upperback 7.64612 -5.01767 -4.15268
thorax -10.9349 -2.79538 -2.22465
lowerneck -1.36314 2.64289 -3.99162
upperneck -3.30607 3.46102 -0.24622
head -0.853167 1.74445 0.568427
rclavicle 7.4743e-014 -1.28229e-013
rhumerus -370.562 24.2696 307.302
rradius 111.424
rwrist -3.948
rhand -46.7707 759.749
rfingers 7.12502
rthumb -19.4868 730.706
lclavicle 7.4743e-014 -1.28229e-013
lhumerus -522.181 174.066 -499.898
lradius 122.556
lwrist 24.0665
lhand -30.8254 -737.26
lfingers 7.12502
lthumb -4.11456 12.6801
rfemur -582.718 -171.563 550.736
rtibia 75.64
rfoot 0.0505539 -0.319277
rtoes 24.5275
lfemur -9.22209 749.654 -12.5877
ltibia 95.0156
lfoot 28.4508 473.468
ltoes -32.2713
300
root 18.2213 2.15309 0.431185 -1713.32 258.937 148.825
lowerback 38.9896 -2.70254 0.0486781
upperback 7.56456 -4.952 -4.19494
thorax -10.9958 -2.75905 -2.34241
lowerneck -1.59254 2.60721 -4.05878
upperneck -3.27149 3.42503 -0.194111
head -0.805973 1.72554 0.598991
rclavicle 1.94809e-014 -5.80203e-014
rhumerus -369.7 23.4461 308.184
rradius 112.259
rwrist -4.43914
rhand -46.5562 759.767
rfingers 7.12502
rthumb -19.2806 730.703
lclavicle 1.94809e-014 -5.80203e-014
lhumerus -521.365 173.234 -500.161
lradius 123.082
lwrist 24.6501
lhand -31.0594 -737.789
lfingers 7.12502
lthumb -4.34052 12.1466
rfemur -582.311 -171.343 550.831
rtibia 75.8012
rfoot 0.245997 -0.234159
rtoes 24.2697
lfemur -9.77062 749.019 -13.4212
ltibia 95.0591
lfoot 28.7522 474.575
ltoes -32.228
301
root 18.223 2.13246 0.435606 -1713.26 258.925 148.883
lowerback 38.8877 -2.6791 0.0933323
upperback 7.47992 -4.89755 -4.23134
thorax -11.0621 -2.72781 -2.43015
lowerneck -1.80129 2.5927 -4.03021
upperneck -3.21598 3.41389 -0.225774
head -0.752601 1.71819 0.587424
rclavicle -3.77691e-014 9.59633e-014
rhumerus -368.827 22.6158 309.015
rradius 113.029
rwrist -5.01629
rhand -46.2604 759.758
rfingers 7.12502
rthumb -18.9961 730.665
lclavicle -3.77691e-014 9.59633e-014
lhumerus -520.617 172.411 -500.434
lradius 123.527
lwrist 25.211
lhand -31.3832 -738.405
lfingers 7.12502
lthumb -4.6532 11.5236
rfemur -581.856 -171.122 550.919
rtibia 75.9606
rfoot 0.473459 -0.211603
rtoes 24.1189
lfemur -10.2828 748.392 -14.2426
ltibia 95.0866
lfoot 29.4369 475.723
ltoes -32.3559
302
root 18.2253 2.11143 0.439414 -1713.15 258.913 148.931
lowerback 38.7505 -2.66229 0.103056
upperback 7.38784 -4.86324 -4.2518
thorax -11.1214 -2.70525 -2.47503
lowerneck -2.02003 2.59424 -4.02211
upperneck -3.14985 3.42421 -0.265825
head -0.69514 1.72139 0.576834
rclavicle 1.13705e-013 -1.05406e-013
rhumerus -367.958 21.83 309.753
rradius 113.747
rwrist -5.53193
rhand -45.9957 759.643
rfingers 7.12502
rthumb -18.7416 730.526
lclavicle 1.13705e-013 -1.05406e-013
lhumerus -519.967 171.58 -500.699
lradius 123.941
lwrist 25.717
lhand -31.7387 -738.954
lfingers 7.12502
lthumb -4.99645 10.9669
rfemur -581.401 -170.904 550.998
rtibia 76.1224
rfoot 0.731545 -0.201504
rtoes 23.9189
lfemur -10.8134 747.77 -15.0626
ltibia 95.0901
lfoot 30.127 476.885
ltoes -32.6278
